<svg id="Calque_1" xmlns="http://www.w3.org/2000/svg" xmlns:xlink="http://www.w3.org/1999/xlink" viewBox="0 0 110 90"><style>.st5,.st6{clip-path:url(#SVGID_8_)}.st5{fill:#005529}.st6{enable-background:new}.st25,.st26{clip-path:url(#SVGID_32_)}.st25{fill:#005d2e}.st26{fill:#005e30}.st41{fill:#006433}.st41,.st42,.st43,.st44,.st45{clip-path:url(#SVGID_50_)}.st42{fill:#006634}.st43{fill:#006835}.st44{fill:#006a37}.st45{fill:#006b38}.st62{clip-path:url(#SVGID_6_);fill:#fff}</style><defs><path id="SVGID_1_" d="M-22.5-31.8h152v152h-152z"/></defs><clipPath id="SVGID_2_"><use xlink:href="#SVGID_1_" overflow="visible"/></clipPath><g clip-path="url(#SVGID_2_)"><defs><path id="SVGID_3_" d="M-22.5-31.8h152v152h-152z"/></defs><clipPath id="SVGID_4_"><use xlink:href="#SVGID_3_" overflow="visible"/></clipPath><g clip-path="url(#SVGID_4_)"><defs><path id="SVGID_5_" d="M-22.5-31.8h152v152h-152z"/></defs><clipPath id="SVGID_6_"><use xlink:href="#SVGID_5_" overflow="visible"/></clipPath><path d="M8.7 81.1c-1.3 6.9 3.1 9.8 10 6.4l51.8-25.6H12.4L8.7 81.1zM90.5 2.5l-62.8 31c-.2.1-.4.2-.7.4h68.7L100.5 9c1.3-7-3.2-9.9-10-6.5" clip-path="url(#SVGID_6_)" fill="#8ec94a"/><g clip-path="url(#SVGID_6_)"><defs><path id="SVGID_7_" d="M1.1 12.2h106.5v65.7H1.1z"/></defs><clipPath id="SVGID_8_"><use xlink:href="#SVGID_7_" overflow="visible"/></clipPath><path d="M22.2 12.2h79.9-79.9z" clip-path="url(#SVGID_8_)" fill="#005a2d"/><path class="st5" d="M1.4 70.8l11.9-51.5L1.4 70.8z"/><g class="st6"><clipPath id="SVGID_10_"><use xlink:href="#SVGID_9_" overflow="visible"/></clipPath><g clip-path="url(#SVGID_10_)"><clipPath id="SVGID_12_"><use xlink:href="#SVGID_11_" overflow="visible"/></clipPath><g clip-path="url(#SVGID_12_)"><clipPath id="SVGID_14_"><use xlink:href="#SVGID_13_" overflow="visible"/></clipPath></g></g></g><g class="st6"><defs><path id="SVGID_15_" d="M86.6 70.3h8.9v7.6h-8.9z"/></defs><clipPath id="SVGID_16_"><use xlink:href="#SVGID_15_" overflow="visible"/></clipPath><g clip-path="url(#SVGID_16_)"><defs><path id="SVGID_17_" d="M93.2 70.3l2.3.5c-1 3.9-5 7.1-8.9 7.1v-2.3c2.8 0 5.9-2.4 6.6-5.3"/></defs><clipPath id="SVGID_18_"><use xlink:href="#SVGID_17_" overflow="visible"/></clipPath><g clip-path="url(#SVGID_18_)"><defs><path id="SVGID_19_" d="M86.6 70.3h8.9v7.6h-8.9z"/></defs><clipPath id="SVGID_20_"><use xlink:href="#SVGID_19_" overflow="visible"/></clipPath><path d="M93.2 70.3l2.3.5c0 .1 0 .1-.1.2l-2.2-.6v-.1" clip-path="url(#SVGID_20_)" fill="#006232"/><path d="M93.2 70.5l2.2.6c-.1.3-.2.5-.3.8L93 71c.1-.2.1-.4.2-.5" clip-path="url(#SVGID_20_)" fill="#006031"/><path d="M93 71l2.2.8c-.1.3-.2.6-.4.8l-2.1-1 .3-.6" clip-path="url(#SVGID_20_)" fill="#005e30"/><path d="M92.7 71.6l2.1 1c-.2.3-.3.6-.5.9l-1.9-1.2c.1-.2.2-.4.3-.7" clip-path="url(#SVGID_20_)" fill="#005d2e"/><path d="M92.3 72.3l1.9 1.2c-.2.4-.5.7-.8 1L91.6 73c.3-.2.5-.4.7-.7" clip-path="url(#SVGID_20_)" fill="#005b2d"/><path d="M91.7 73.1l1.8 1.5c-.4.4-.8.8-1.3 1.2L90.8 74l.9-.9" clip-path="url(#SVGID_20_)" fill="#00592c"/><path d="M90.8 74l1.4 1.8c-1.6 1.3-3.6 2.1-5.6 2.1v-2.3c1.4 0 2.9-.6 4.2-1.6" clip-path="url(#SVGID_20_)" fill="#00572b"/></g></g></g><g class="st6"><clipPath id="SVGID_22_"><use xlink:href="#SVGID_21_" overflow="visible"/></clipPath><g clip-path="url(#SVGID_22_)"><clipPath id="SVGID_24_"><use xlink:href="#SVGID_23_" overflow="visible"/></clipPath><g clip-path="url(#SVGID_24_)"><clipPath id="SVGID_26_"><use xlink:href="#SVGID_25_" overflow="visible"/></clipPath></g></g></g><g class="st6"><defs><path id="SVGID_27_" d="M102.1 12.2h5.5v7.1h-5.5z"/></defs><clipPath id="SVGID_28_"><use xlink:href="#SVGID_27_" overflow="visible"/></clipPath><g clip-path="url(#SVGID_28_)"><defs><path id="SVGID_29_" d="M102.1 12.2c3.9 0 6.3 3.2 5.3 7.1 1-3.9-1.4-7.1-5.3-7.1"/></defs><clipPath id="SVGID_30_"><use xlink:href="#SVGID_29_" overflow="visible"/></clipPath><g clip-path="url(#SVGID_30_)"><defs><path id="SVGID_31_" d="M102.1 12.2h5.5v7.1h-5.5z"/></defs><clipPath id="SVGID_32_"><use xlink:href="#SVGID_31_" overflow="visible"/></clipPath><path class="st25" d="M102.4 12.2c.3 0 .7 0 1 .1-.4 0-.7-.1-1-.1"/><path class="st26" d="M103.3 12.3c.3.1.6.1.9.2-.2 0-.5-.1-.9-.2"/><path d="M104.3 12.6c.4.1.7.3 1 .5-.4-.2-.7-.4-1-.5" fill="#006031" clip-path="url(#SVGID_32_)"/><path d="M105.2 13c.9.6 1.6 1.4 2 2.3-.4-.9-1.1-1.7-2-2.3" clip-path="url(#SVGID_32_)" fill="#006232"/><path class="st26" d="M107.5 16.4c.1.3.1.6.1 1 0-.3 0-.7-.1-1"/><path class="st25" d="M107.6 17.4c0 .3 0 .7-.1 1 .1-.3.1-.7.1-1"/><path d="M107.6 18.4c0 .3-.1.6-.2.9.1-.3.1-.6.2-.9" clip-path="url(#SVGID_32_)" fill="#005b2d"/></g></g></g><g class="st6"><defs><path id="SVGID_33_" d="M13.2 12.2h8.9v7.1h-8.9z"/></defs><clipPath id="SVGID_34_"><use xlink:href="#SVGID_33_" overflow="visible"/></clipPath><g clip-path="url(#SVGID_34_)"><defs><path id="SVGID_35_" d="M13.2 19.3c1-3.9 5-7.1 8.9-7.1-3.9 0-7.8 3.2-8.9 7.1"/></defs><clipPath id="SVGID_36_"><use xlink:href="#SVGID_35_" overflow="visible"/></clipPath><g clip-path="url(#SVGID_36_)"><defs><path id="SVGID_37_" d="M13.2 12.2h8.9v7.1h-8.9z"/></defs><clipPath id="SVGID_38_"><use xlink:href="#SVGID_37_" overflow="visible"/></clipPath><path d="M13.2 19.3c.8-3.1 3.5-5.8 6.5-6.7-3 .9-5.6 3.6-6.5 6.7" clip-path="url(#SVGID_38_)" fill="#00572b"/><path d="M19.8 12.6c.5-.2 1-.3 1.5-.3-.6 0-1 .1-1.5.3" clip-path="url(#SVGID_38_)" fill="#00592c"/><path d="M21.2 12.3c.3 0 .6-.1.9-.1-.2 0-.6 0-.9.1" clip-path="url(#SVGID_38_)" fill="#005b2d"/></g></g></g><g class="st6"><defs><path id="SVGID_39_" d="M1.1 70.8h5.5v7.1H1.1z"/></defs><clipPath id="SVGID_40_"><use xlink:href="#SVGID_39_" overflow="visible"/></clipPath><g clip-path="url(#SVGID_40_)"><defs><path id="SVGID_41_" d="M6.6 75.6v2.3c-3.9 0-6.3-3.2-5.3-7.1l2.2.6c-.5 2.5.8 4.2 3.1 4.2"/></defs><clipPath id="SVGID_42_"><use xlink:href="#SVGID_41_" overflow="visible"/></clipPath><g clip-path="url(#SVGID_42_)"><defs><path id="SVGID_43_" d="M1.1 70.8h5.5v7.1H1.1z"/></defs><clipPath id="SVGID_44_"><use xlink:href="#SVGID_43_" overflow="visible"/></clipPath><path d="M6.6 75.6v2.3c-3.9 0-6.3-3.2-5.3-7.1l2.2.6c-.5 2.5.8 4.2 3.1 4.2" clip-path="url(#SVGID_44_)" fill="#00572b"/></g></g></g><path clip-path="url(#SVGID_8_)" fill="#006735" d="M22.2 12.2h79.9v2.3H22.2z"/><path class="st5" d="M6.6 75.6h80v2.3h-80z"/><path clip-path="url(#SVGID_8_)" fill="#006534" d="M105.1 18.7l2.3.6-11.9 51.5-2.3-.5z"/><g class="st6"><defs><path id="SVGID_45_" d="M102.1 12.2h5.5v7.1h-5.5z"/></defs><clipPath id="SVGID_46_"><use xlink:href="#SVGID_45_" overflow="visible"/></clipPath><g clip-path="url(#SVGID_46_)"><defs><path id="SVGID_47_" d="M102.1 14.5v-2.3c3.9 0 6.3 3.2 5.3 7.1l-2.2-.6c.5-2.4-.8-4.2-3.1-4.2"/></defs><clipPath id="SVGID_48_"><use xlink:href="#SVGID_47_" overflow="visible"/></clipPath><g clip-path="url(#SVGID_48_)"><defs><path id="SVGID_49_" d="M102.1 12.2h5.5v7.1h-5.5z"/></defs><clipPath id="SVGID_50_"><use xlink:href="#SVGID_49_" overflow="visible"/></clipPath><path class="st41" d="M102.1 14.5v-2.3h.6l-.2 2.3h-.4"/><path class="st42" d="M102.5 14.5l.2-2.3c.2 0 .5.1.7.1l-.5 2.3c-.2 0-.3-.1-.4-.1"/><path class="st43" d="M102.9 14.6l.5-2.3c.2 0 .4.1.6.2l-.8 2.2c-.1-.1-.2-.1-.3-.1"/><path class="st44" d="M103.2 14.7l.8-2.2c.2.1.4.2.6.2l-1 2.1c-.1 0-.2-.1-.4-.1"/><path class="st45" d="M103.6 14.8l1-2.1c.3.1.5.3.7.4l-1.4 1.9s-.1-.1-.3-.2"/><path d="M104 15.1l1.4-1.9c.8.5 1.3 1.2 1.7 2l-2.1 1c-.2-.5-.5-.9-1-1.1" clip-path="url(#SVGID_50_)" fill="#006d39"/><path class="st45" d="M105 16.2l2.1-1c.1.3.2.5.3.8l-2.2.7c-.1-.2-.1-.3-.2-.5"/><path class="st44" d="M105.2 16.7l2.2-.7c.1.2.1.5.1.7l-2.3.4v-.4"/><path class="st43" d="M105.3 17.1l2.3-.4c0 .2 0 .4.1.7l-2.3.2c-.1-.2-.1-.4-.1-.5"/><path class="st42" d="M105.3 17.5l2.3-.2v.7l-2.3-.1v-.4"/><path class="st41" d="M105.3 17.9l2.3.1c0 .2-.1.5-.1.7l-2.3-.4c0-.1.1-.2.1-.4"/><path d="M105.2 18.4l2.3.4c0 .2-.1.3-.1.5l-2.2-.6v-.3" clip-path="url(#SVGID_50_)" fill="#006232"/></g></g></g><g class="st6"><defs><path id="SVGID_51_" d="M13.2 12.2h8.9v7.6h-8.9z"/></defs><clipPath id="SVGID_52_"><use xlink:href="#SVGID_51_" overflow="visible"/></clipPath><g clip-path="url(#SVGID_52_)"><defs><path id="SVGID_53_" d="M15.5 19.8l-2.3-.5c1-3.9 5-7.1 8.9-7.1v2.3c-2.8 0-5.9 2.4-6.6 5.3"/></defs><clipPath id="SVGID_54_"><use xlink:href="#SVGID_53_" overflow="visible"/></clipPath><g clip-path="url(#SVGID_54_)"><defs><path id="SVGID_55_" d="M13.2 12.2h8.9v7.6h-8.9z"/></defs><clipPath id="SVGID_56_"><use xlink:href="#SVGID_55_" overflow="visible"/></clipPath><path d="M15.5 19.8l-2.3-.5c.5-1.8 1.5-3.4 2.9-4.7l1.5 1.7c-.9 1-1.8 2.2-2.1 3.5" clip-path="url(#SVGID_56_)" fill="#00572b"/><path d="M17.7 16.3l-1.5-1.7c.4-.4.9-.7 1.4-1l1.2 2c-.4.2-.7.5-1.1.7" clip-path="url(#SVGID_56_)" fill="#00592c"/><path d="M18.8 15.6l-1.2-2c.4-.2.8-.4 1.1-.6l.9 2.1c-.3.1-.5.3-.8.5" clip-path="url(#SVGID_56_)" fill="#005b2d"/><path d="M19.6 15.1l-.9-2.1c.3-.1.6-.3 1-.4l.7 2.2c-.3.1-.5.2-.8.3" clip-path="url(#SVGID_56_)" fill="#005d2e"/><path d="M20.4 14.8l-.7-2.2c.3-.1.6-.2.9-.2l.4 2.3c-.2 0-.4 0-.6.1" clip-path="url(#SVGID_56_)" fill="#005e30"/><path d="M21 14.6l-.4-2.3c.3-.1.5-.1.8-.1l.2 2.3c-.2.1-.4.1-.6.1" clip-path="url(#SVGID_56_)" fill="#006031"/><path d="M21.6 14.6l-.2-2.3h.7v2.3c-.2-.1-.4-.1-.5 0" clip-path="url(#SVGID_56_)" fill="#006232"/><path d="M22.1 14.5v-2.3h.1l-.1 2.3" clip-path="url(#SVGID_56_)" fill="#006433"/></g></g></g><path class="st5" d="M3.6 71.4l-2.2-.6 11.8-51.5 2.3.5z"/><path d="M102.1 14.5c2.3 0 3.6 1.7 3 4.2L93.2 70.3c-.7 2.9-3.8 5.3-6.7 5.3h-80c-2.3 0-3.6-1.7-3-4.2l11.9-51.6c.7-2.9 3.8-5.3 6.7-5.3h80z" clip-path="url(#SVGID_8_)" fill="#00773f"/></g><g opacity=".7" clip-path="url(#SVGID_6_)"><defs><path id="SVGID_57_" d="M1.1 12.2h106.5v65.7H1.1z"/></defs><clipPath id="SVGID_58_"><use xlink:href="#SVGID_57_" overflow="visible"/></clipPath><g clip-path="url(#SVGID_58_)"><defs><path id="SVGID_59_" d="M95.5 70.8c-1 3.9-5 7.1-8.9 7.1h-80c-3.9 0-6.3-3.2-5.3-7.1l11.9-51.5c1-3.9 5-7.1 8.9-7.1h80c3.9 0 6.3 3.2 5.3 7.1L95.5 70.8z"/></defs><clipPath id="SVGID_60_"><use xlink:href="#SVGID_59_" overflow="visible"/></clipPath><linearGradient id="SVGID_61_" gradientUnits="userSpaceOnUse" x1="1.74" y1="-.73" x2="2.28" y2="-.73" gradientTransform="matrix(0 122.5532 122.5532 0 143.361 -201.504)"><stop offset="0" stop-color="#037239"/><stop offset="1" stop-color="#002904"/></linearGradient><path clip-path="url(#SVGID_60_)" fill="url(#SVGID_61_)" d="M.4 12.2h108v65.7H.4z"/></g></g><path class="st62" d="M38.2 52H23.7c-3.4 0-4.5.5-5.1 3.6l-1.3 6.7c-.6 3.3.4 5 4.4 5h10l1.2-6.2h-9.6l.7-3.7h14l-2.9 14H21.2c-6.1 0-9.2-4.2-8.1-9.8l1.3-6.8c.8-4.2 3.5-7.1 9.5-7.1H39l-.8 4.3zm24 19.5h-4.4l1.6-7.9H43.8l-1.6 7.9h-4.4l3.4-16.1c1.1-5.3 3.9-7.5 9.9-7.5h6.7c5.2 0 8.7 3.5 7.7 8.1l-3.3 15.5zm-5-19.5h-6.4c-3.5 0-4.7.6-5.4 3.6l-.8 4h15.6L61 56c.6-2.9-.4-4-3.8-4"/><path class="st62" d="M89.6 51.8h-14c-5.1 0-5.1 6-.7 6h6.7c10.3 0 8.8 13.9-.8 13.9H65.6l.8-4.1h14.3c4.2 0 5.5-5.8.5-5.8H75c-10.6 0-10.1-14.1 1.2-14.1h14.1l-.7 4.1zM25 42.4c-5.9 0-9.5-4-8.6-8.8l1.4-7.4c.9-4.8 6-8.7 11.8-8.7l14.2.1L43 22l-14.2-.1c-3.6 0-5.9 1.9-6.3 4.3l-.3 1.5 16.5.1-.7 4.4-16.5-.1-.3 1.5c-.4 2.4 1.1 4.4 4.7 4.4l14.1.1-.8 4.4-14.2-.1zm27.1.2c-5.9 0-9.5-4-8.6-8.8l1.4-7.4c.9-4.8 6-8.7 11.8-8.7l13.3.1-.8 4.4-13.4-.1c-3.6 0-5.9 1.9-6.3 4.3l-1.4 7.4c-.4 2.4 1.1 4.4 4.7 4.4l13.4.1-.8 4.4-13.3-.1zm32.5.3h-7.1c-5 0-8.9-3.2-8-8.1l1.7-9c.9-4.9 5.9-8 10.9-8h7.1c5 0 8.9 3.2 8 8.1l-1.7 9c-.9 4.9-5.9 8-10.9 8m7.8-17.1c.4-2.4-1.2-3.6-4.1-3.7h-7.1c-2.9 0-5 1.2-5.4 3.6l-1.7 9c-.4 2.4 1.2 3.6 4.1 3.7h7.1c2.9 0 5-1.2 5.4-3.6l1.7-9z"/></g></g></svg>